<svg xmlns="http://www.w3.org/2000/svg" width="20" height="20" fill="none" xmlns:v="https://vecta.io/nano"><g clip-path="url(#A)"><path d="M18.125 2.5H1.875A1.88 1.88 0 0 0 0 4.375v11.25A1.88 1.88 0 0 0 1.875 17.5h16.25A1.88 1.88 0 0 0 20 15.625V4.375A1.88 1.88 0 0 0 18.125 2.5zm0 1.25a.62.62 0 0 1 .239.048L10 11.048l-8.365-7.25a.62.62 0 0 1 .24-.048h16.25zm0 12.5H1.875c-.345 0-.625-.28-.625-.625V5.119l8.34 7.228c.118.102.264.153.41.153s.292-.051.41-.153l8.34-7.228v10.506c0 .345-.28.625-.625.625z" fill="#fff"/></g><defs><clipPath id="A"><path fill="#fff" d="M0 0h20v20H0z"/></clipPath></defs></svg>