<svg width="40" height="40" viewBox="0 0 40 40" fill="none" xmlns="http://www.w3.org/2000/svg">
<circle cx="20" cy="20" r="20" fill="#3B5998"/>
<path d="M20 31C26.0751 31 31 26.0751 31 20C31 13.9249 26.0751 9 20 9C13.9249 9 9 13.9249 9 20C9 26.0751 13.9249 31 20 31Z" fill="#3B5998"/>
<path d="M22.7652 20.4303H20.8024V27.6211H17.8285V20.4303H16.4142V17.9031H17.8285V16.2678C17.8285 15.0983 18.3841 13.2671 20.8288 13.2671L23.0317 13.2763V15.7293H21.4334C21.1712 15.7293 20.8026 15.8603 20.8026 16.4182V17.9055H23.025L22.7652 20.4303Z" fill="white"/>
</svg>
