<svg xmlns="http://www.w3.org/2000/svg" width="100" height="100" fill="#000" opacity=".06" xmlns:v="https://vecta.io/nano"><path d="M23.91 38.092l-.179-.004a3.91 3.91 0 0 0-4.003 3.807 3.91 3.91 0 0 0 3.807 4.003l.212.005c8.445.163 15.315 7.171 15.315 15.621 0 8.616-7.009 15.625-15.625 15.625S7.813 70.139 7.813 61.524c0-10.761 2.559-20.691 7.608-29.515 3.773-6.595 7.61-10.078 7.681-10.143a3.91 3.91 0 0 0 .335-5.505 3.91 3.91 0 0 0-5.514-.345c-.189.167-4.677 4.17-9.095 11.784C4.801 34.742 0 46.227 0 61.524c0 12.923 10.514 23.438 23.438 23.438s23.438-10.514 23.438-23.437a23.3 23.3 0 0 0-6.714-16.42 23.3 23.3 0 0 0-16.251-7.012zm69.376 7.012a23.3 23.3 0 0 0-16.252-7.012l-.179-.005c-2.15-.048-3.949 1.651-4.003 3.807a3.91 3.91 0 0 0 3.807 4.003l.213.005c8.445.164 15.315 7.171 15.315 15.621 0 8.616-7.009 15.625-15.625 15.625s-15.625-7.009-15.625-15.625c0-10.761 2.559-20.692 7.607-29.514 3.773-6.595 7.61-10.078 7.681-10.143 1.609-1.428 1.76-3.891.335-5.505a3.91 3.91 0 0 0-5.514-.345c-.189.167-4.677 4.17-9.095 11.784-4.027 6.941-8.828 18.427-8.828 33.723 0 12.923 10.514 23.437 23.438 23.437S100 74.447 100 61.523a23.3 23.3 0 0 0-6.714-16.42z"/></svg>