<svg width="40" height="40" viewBox="0 0 40 40" fill="none" xmlns="http://www.w3.org/2000/svg">
<circle cx="20" cy="20" r="20" fill="#E74D89"/>
<path d="M19.9992 9.73047C25.6711 9.73047 30.2602 14.3195 30.2602 19.9828C30.2602 25.6461 25.6711 30.2437 19.9992 30.2437C14.3273 30.2437 9.73828 25.6547 9.73828 19.9914C9.73828 14.3281 14.3273 9.73047 19.9992 9.73047Z" fill="#E74D89"/>
<path d="M20 30.9742C13.9328 30.9742 9 26.05 9 19.9914C9 13.9242 13.9328 9 20 9C26.0672 9 31 13.9242 31 19.9828C31 26.0414 26.0672 30.9742 20 30.9742ZM29.2727 21.4867C28.9547 21.3836 26.368 20.6187 23.4203 21.0828C24.6492 24.4516 25.1477 27.2016 25.2422 27.7687C27.3563 26.3508 28.8602 24.0992 29.2727 21.4867ZM23.6695 28.6367C23.532 27.8117 22.982 24.9414 21.6672 21.5211C21.65 21.5297 21.6242 21.5383 21.607 21.5383C16.3047 23.3859 14.4055 27.0555 14.2336 27.3992C15.8234 28.6367 17.8258 29.3758 20 29.3758C21.2977 29.3844 22.5437 29.118 23.6695 28.6367ZM13.0219 26.2734C13.2367 25.9125 15.8148 21.65 20.6617 20.0773C20.782 20.0344 20.9109 20 21.0312 19.9656C20.7992 19.4328 20.5414 18.9 20.2664 18.3758C15.5742 19.7766 11.0195 19.7164 10.607 19.7078C10.607 19.8023 10.5984 19.8969 10.5984 19.9914C10.607 22.4062 11.518 24.6062 13.0219 26.2734ZM10.8047 18.075C11.2258 18.0836 15.093 18.1008 19.493 16.932C17.9375 14.1648 16.2531 11.8445 16.0125 11.5094C13.3742 12.7469 11.4148 15.1703 10.8047 18.075ZM17.8 10.8734C18.0578 11.2172 19.768 13.5375 21.3062 16.3648C24.6492 15.1102 26.0586 13.2195 26.2305 12.9789C24.5719 11.5094 22.3891 10.6156 20 10.6156C19.2437 10.6156 18.5047 10.7102 17.8 10.8734ZM27.2703 14.0617C27.0727 14.3281 25.5 16.3477 22.0281 17.7656C22.243 18.2125 22.4578 18.668 22.6555 19.1234C22.7242 19.2867 22.793 19.45 22.8617 19.6047C25.9898 19.2094 29.0922 19.8453 29.4016 19.9055C29.3758 17.6969 28.5852 15.6602 27.2703 14.0617Z" fill="white"/>
</svg>
