<svg width="40" height="40" viewBox="0 0 40 40" fill="none" xmlns="http://www.w3.org/2000/svg">
<circle cx="20" cy="20" r="20" fill="#55ACEE"/>
<path d="M28 14.5393C27.4113 14.8003 26.7787 14.9768 26.1146 15.0561C26.7924 14.6499 27.3129 14.0066 27.558 13.2401C26.9237 13.6162 26.2212 13.8894 25.4735 14.0366C24.8747 13.3987 24.0216 13 23.0774 13C21.2645 13 19.7948 14.4697 19.7948 16.2825C19.7948 16.5398 19.8238 16.7903 19.8798 17.0306C17.1516 16.8937 14.7329 15.5868 13.1138 13.6009C12.8313 14.0857 12.6694 14.6496 12.6694 15.2511C12.6694 16.39 13.249 17.3947 14.1298 17.9834C13.5916 17.9663 13.0855 17.8187 12.6429 17.5728C12.6427 17.5865 12.6427 17.6003 12.6427 17.6141C12.6427 19.2045 13.7742 20.5313 15.2758 20.8328C15.0004 20.9078 14.7104 20.9479 14.411 20.9479C14.1995 20.9479 13.9938 20.9274 13.7934 20.889C14.2111 22.1932 15.4234 23.1422 16.8598 23.1687C15.7364 24.0491 14.321 24.5739 12.7831 24.5739C12.5181 24.5739 12.2568 24.5584 12 24.5281C13.4527 25.4594 15.1782 26.0028 17.0319 26.0028C23.0698 26.0028 26.3715 21.0009 26.3715 16.6632C26.3715 16.5208 26.3683 16.3793 26.362 16.2385C27.0033 15.7757 27.5599 15.1975 28 14.5393Z" fill="white"/>
</svg>
