<svg xmlns="http://www.w3.org/2000/svg" width="207" height="40" fill="none" xmlns:v="https://vecta.io/nano"><path d="M3.37 7.75h3.77a.39.39 0 0 0 .389-.389l-.046-4.126c-.009-.662.135-1.317.423-1.914l.13-.242c-.013.003-.029.009-.043.023L.696 8.339c-.013.013-.023.026-.026.043l.386-.19c.65-.286 1.404-.442 2.34-.442H3.37zm29.223-.788c-.299-1.597-1.248-2.384-2.106-2.694-.926-.334-2.804-.681-5.164-.959-1.898-.224-4.129-.205-5.477-.164-.161-1.108-.939-2.119-1.82-2.47-2.317-.932-5.896-.707-6.815-.45-.731.204-1.538.624-1.989 1.268-.302.429-.497.982-.498 1.753l.023 2.377.023 1.742A1.48 1.48 0 0 1 7.29 8.844h-3.77c-.802 0-1.413.134-1.881.347-.418.183-.781.472-1.053.839-.502.674-.589 1.504-.585 2.34 0 0 .008.693.174 2.035.139 1.037 1.265 8.289 2.334 10.494.416.858.692 1.216 1.506 1.594 1.815.777 5.96 1.641 7.902 1.889s3.157.77 3.881-.751l.342-.928c.629-1.909.718-3.601.718-4.826 0-.125.182-.13.182 0 0 .865-.165 3.926 2.145 4.745.913.325 2.808.611 4.732.837 1.739.2 2.99.884 2.99 5.347 0 2.73-.572 3.088-3.552 3.088-2.418 0-3.339.062-3.339-1.859 0-1.552 1.534-1.391 2.673-1.391.52 0 .139-.39.139-1.335s.595-1.503.032-1.517c-3.934-.108-6.248-.004-6.248 4.914 0 4.466 1.71 5.295 7.28 5.295 4.377 0 5.921-.13 7.728-5.752.358-1.108 1.222-4.485 1.746-10.159.332-3.588-.312-14.413-.822-17.145l.049.018zm-7.632 11.966c-.518-.019-1.036.012-1.547.094.137-1.102.591-2.455 2.204-2.399 1.785.061 2.035 1.747 2.041 2.89-.754-.335-1.684-.549-2.699-.585h.001z" fill="#00a82d"/><path d="M46.805 26.732h2.248l.108-14.448h-2.356V9.511h14.897l.181 5.618H58.93l-.256-2.847h-5.62l-.035 5.654h5.708v2.774h-5.708l-.035 6.022h5.655l.362-3.209h3.189l-.362 5.983H46.805v-2.774h0zm38.786-14.448h-1.884l-7.071 17.219h-4.059l-7.086-17.219h-1.994V9.511h8.464v2.774h-1.994l4.894 13.57h.073l4.858-13.57H77.4V9.511h8.193l-.002 2.774zm1.957 14.448h2.248l.108-14.448h-2.352V9.511h14.897l.181 5.618h-2.952l-.256-2.847h-5.62l-.035 5.654h5.708v2.774h-5.708l-.039 6.022h5.655l.364-3.209h3.189l-.363 5.983H87.553v-2.774h-.006zm19.104 0h2.248l.108-14.448h-2.356V9.511h9.173c4.606 0 6.09 2.663 6.09 5.254 0 2.298-1.122 4.358-4.677 5.289v.073c1.851.511 2.323.985 4.169 4.196 1.231 2.08 1.668 2.409 2.357 2.409.289 0 .58-.073.832-.109v2.88h-2.031c-2.683 0-3.006-.327-5.108-4.525-1.886-3.72-2.323-3.976-3.772-3.976h-.795l-.039 5.745h2.356v2.773h-8.555v-2.773-.016zm6.273-8.503h1.575c2.138 0 3.587-1.189 3.587-3.027 0-1.823-.906-2.92-2.717-2.92h-2.393l-.034 5.943-.018.004zm29.907-5.947h-2.356V9.509h7.795v2.774h-2.248l-.109 17.22h-2.952l-10.622-14.228h-.073l-.11 11.457h2.358v2.773h-7.795V26.73h2.248l.108-14.448h-2.356V9.509h5.87l10.039 13.539h.073l.108-10.763.022-.002zm16.732-3.176c6.85 0 9.842 4.56 9.842 10.107 0 6.312-3.734 10.688-9.842 10.688-6.851 0-9.843-4.56-9.843-10.143 0-6.276 3.733-10.658 9.843-10.658v.006zm0 17.586c3.696 0 5.799-3.176 5.799-7.225 0-4.557-2.461-7.132-5.799-7.132-3.701 0-5.801 3.174-5.801 7.296 0 4.487 2.466 7.078 5.801 7.078v-.018zm16.094.04h2.244l.108-14.448h-4.004l-.148 2.847h-3.005l.196-5.618h17.801l.197 5.618h-3.012l-.145-2.847H181.9l-.108 14.448h2.354v2.774h-8.552v-2.774h.063zm15.657 0h2.248l.11-14.448h-2.358V9.511h14.901l.196 5.618h-2.952l-.256-2.847h-5.618l-.039 5.654h5.708v2.774h-5.708l-.04 6.022h5.656l.364-3.209h3.189l-.361 5.983h-15.009v-2.774h-.031z" fill="#000"/></svg>