<svg width="90" height="90" viewBox="0 0 90 90" fill="none" xmlns="http://www.w3.org/2000/svg">
<path d="M45 13C27.3569 13 13 27.3569 13 45C13 62.6431 27.3569 77 45 77C62.6431 77 77 62.6431 77 45C77.0076 27.3569 62.6507 13 45 13ZM45 73.6681C30.605 73.6681 18.665 63.009 16.6369 49.1706C17.163 49.3765 17.5747 49.7882 18.177 50.4286C19.1606 51.4732 20.5025 52.899 23.0567 52.899C25.6109 52.899 26.9528 51.4656 27.9364 50.4286C28.8361 49.4679 29.3164 49.0105 30.3838 49.0105C31.253 49.0105 31.7334 49.3231 32.3738 49.9635C33.9369 55.476 38.9995 59.5247 45.0076 59.5247C50.9928 59.5247 56.0479 55.4989 57.6262 50.0093C58.2895 49.3383 58.7774 49.0029 59.6695 49.0029C60.7293 49.0029 61.2097 49.4679 62.117 50.421C63.1005 51.4656 64.4424 52.8913 66.9967 52.8913C69.589 52.8913 70.8546 51.4351 71.7772 50.3753C72.4024 49.6586 72.7836 49.2392 73.386 49.0867C71.3807 62.9709 59.4179 73.6681 45 73.6681ZM35.2025 46.3877C35.2025 40.9819 39.6019 36.5902 45 36.5902C50.4058 36.5902 54.7975 40.9895 54.7975 46.3877C54.7975 51.7934 50.3981 56.1851 45 56.1851C39.6019 56.1851 35.2025 51.7934 35.2025 46.3877ZM69.2459 48.1947C68.4224 49.1401 68.0183 49.5594 66.989 49.5594C65.9292 49.5594 65.4489 49.0943 64.5416 48.1413C63.558 47.0967 62.2161 45.6709 59.6619 45.6709C59.0824 45.6709 58.5792 45.7548 58.1141 45.8768C57.8396 38.8699 52.0755 33.2507 45 33.2507C37.9321 33.2507 32.168 38.8699 31.8859 45.8692C31.436 45.7472 30.9404 45.6709 30.3762 45.6709C27.822 45.6709 26.4801 47.1044 25.4965 48.1413C24.5969 49.102 24.1165 49.5594 23.0491 49.5594C21.9893 49.5594 21.5089 49.0943 20.6016 48.1413C19.7019 47.1882 18.4896 45.9226 16.3395 45.7091C16.3319 45.4727 16.3243 45.2364 16.3243 45C16.3243 29.1944 29.1868 16.3319 44.9924 16.3319C60.7979 16.3319 73.6605 29.1944 73.6605 45C73.6605 45.2364 73.6452 45.4651 73.6452 45.7014C71.3197 45.8463 70.1227 47.1882 69.2459 48.1947Z" fill="white"/>
<path d="M30.2706 27.6468C29.4014 27.3418 28.4484 27.7992 28.1434 28.6684L27.2742 31.1388C26.9692 32.008 27.4267 32.961 28.2959 33.266C28.4789 33.327 28.6695 33.3575 28.8525 33.3575C29.5387 33.3575 30.1868 32.9305 30.4231 32.2443L31.2923 29.774C31.5973 28.9124 31.1398 27.9594 30.2706 27.6468Z" fill="white"/>
<path d="M41.1854 22.8812C40.5221 22.2407 39.4699 22.256 38.8294 22.9193C38.189 23.5827 38.2042 24.6348 38.8676 25.2753L40.7508 27.0975C41.071 27.4101 41.4904 27.5703 41.9097 27.5703C42.3443 27.5703 42.7789 27.4025 43.1068 27.0594C43.7472 26.3961 43.732 25.3439 43.0687 24.7035L41.1854 22.8812Z" fill="white"/>
<path d="M65.3028 36.0333C64.3955 35.8732 63.5339 36.4832 63.3738 37.3905L62.924 39.9752C62.7638 40.8825 63.3738 41.7441 64.2811 41.9042C64.3802 41.9194 64.4794 41.9271 64.5709 41.9271C65.3638 41.9271 66.0729 41.3552 66.2101 40.547L66.66 37.9623C66.8201 37.055 66.2101 36.1935 65.3028 36.0333Z" fill="white"/>
<path d="M56.9069 25.2449L54.2994 25.4889C53.3844 25.5727 52.7058 26.3885 52.7973 27.3111C52.8812 28.1727 53.6055 28.8208 54.4595 28.8208C54.5128 28.8208 54.5662 28.8208 54.6196 28.8131L57.2195 28.5692C58.1345 28.4853 58.8131 27.6695 58.7216 26.7469C58.6377 25.832 57.8142 25.161 56.9069 25.2449Z" fill="white"/>
<path d="M25.4258 38.6182C25.1971 37.7261 24.2974 37.1848 23.3977 37.4059C22.5056 37.6346 21.9643 38.5419 22.193 39.434L22.8183 41.9043C23.0089 42.6591 23.6874 43.1624 24.4346 43.1624C24.5719 43.1624 24.7091 43.1471 24.8464 43.109C25.7384 42.8803 26.2798 41.9729 26.051 41.0809L25.4258 38.6182Z" fill="white"/>
</svg>
