<svg width="90" height="90" viewBox="0 0 90 90" fill="none" xmlns="http://www.w3.org/2000/svg">
<g opacity="0.7">
<path d="M47.0525 1H43.6575C32.824 1 24.0081 9.81588 24.0081 20.6494V40.3554C24.0081 40.3959 24 40.4365 24 40.477C24 40.5175 24.0081 40.558 24.0081 40.5985V59.0081C24.0081 62.6463 26.9656 65.6038 30.6038 65.6038H38.4635V82.9034C38.4635 86.7036 41.5588 89.7989 45.3591 89.7989C49.1593 89.7989 52.2546 86.7036 52.2546 82.9034V65.6038H60.1143C63.7525 65.6038 66.71 62.6463 66.71 59.0081V20.6494C66.7019 9.81588 57.886 1 47.0525 1ZM48.7055 82.8953C48.7055 84.7427 47.2065 86.2417 45.3591 86.2417C43.5116 86.2417 42.0126 84.7427 42.0126 82.8953V65.6038H48.7055V82.8953V82.8953ZM63.161 59.0081C63.161 60.6854 61.7916 62.0548 60.1143 62.0548H30.6038C28.9265 62.0548 27.5571 60.6854 27.5571 59.0081V43.8802C28.4647 45.2252 29.7125 47.0646 32.273 47.0646C34.8416 47.0646 36.0894 45.2171 36.9969 43.8721C37.8477 42.608 38.188 42.2434 38.7796 42.2434C39.3711 42.2434 39.7114 42.608 40.5622 43.8721C41.4697 45.2171 42.7175 47.0646 45.2861 47.0646C47.8547 47.0646 49.1026 45.2171 50.0101 43.8721C50.8609 42.608 51.2012 42.2434 51.7927 42.2434C52.3842 42.2434 52.7245 42.608 53.5753 43.8721C54.4828 45.2171 55.7307 47.0646 58.2993 47.0646C60.8679 47.0646 62.1157 45.2171 63.0232 43.8721C63.0718 43.7991 63.1123 43.7424 63.161 43.6776V59.0081ZM63.161 38.9942C61.6619 39.5695 60.7787 40.8659 60.09 41.8869C59.2392 43.1509 58.8989 43.5155 58.3074 43.5155C57.7078 43.5155 57.3755 43.1509 56.5247 41.8869C55.6172 40.5418 54.3694 38.6943 51.8008 38.6943C49.2322 38.6943 47.9844 40.5418 47.0768 41.8869C46.2261 43.1509 45.8857 43.5155 45.2942 43.5155C44.7027 43.5155 44.3624 43.1509 43.5116 41.8869C42.6041 40.5418 41.3563 38.6943 38.7877 38.6943C36.2191 38.6943 34.9712 40.5418 34.0637 41.8869C33.2129 43.1509 32.8726 43.5155 32.2811 43.5155C31.6896 43.5155 31.3493 43.1509 30.4985 41.8869C29.834 40.8983 28.9832 39.6505 27.5652 39.0509V20.6494C27.5652 11.7687 34.7849 4.54904 43.6656 4.54904H47.0606C55.9413 4.54904 63.161 11.7687 63.161 20.6494V38.9942Z" fill="white"/>
<path d="M38.5442 12.4738C38.3984 11.5096 37.499 10.8452 36.5266 10.9829C35.5543 11.1288 34.8898 12.0282 35.0357 13.0005L35.295 14.7588C35.4246 15.642 36.1863 16.2741 37.0452 16.2741C37.1343 16.2741 37.2235 16.266 37.3045 16.2579C38.2768 16.112 38.9413 15.2126 38.7954 14.2403L38.5442 12.4738Z" fill="white"/>
<path d="M45.9622 20.6246C45.0142 20.3815 44.05 20.9487 43.7988 21.8967L43.3531 23.6226C43.11 24.5707 43.6772 25.5349 44.6253 25.7861C44.7711 25.8266 44.9251 25.8428 45.0709 25.8428C45.8569 25.8428 46.578 25.308 46.7887 24.514L47.2344 22.7881C47.4775 21.8319 46.9103 20.8677 45.9622 20.6246Z" fill="white"/>
<path d="M52.023 8.84365L50.2566 9.06243C49.2842 9.18397 48.5955 10.0672 48.717 11.0395C48.8305 11.9389 49.5921 12.5953 50.4753 12.5953C50.5483 12.5953 50.6212 12.5872 50.7022 12.5791L52.4686 12.3603C53.441 12.2387 54.1297 11.3555 54.0082 10.3832C53.8866 9.41085 53.0034 8.71401 52.023 8.84365Z" fill="white"/>
<path d="M56.8998 25.4383C55.9599 25.1547 54.9714 25.6895 54.6959 26.6294L54.1854 28.3391C53.9018 29.2791 54.4366 30.2676 55.3765 30.5431C55.5467 30.5917 55.7168 30.616 55.887 30.616C56.6486 30.616 57.3536 30.1218 57.5886 29.352L58.0991 27.6423C58.3664 26.7105 57.8317 25.7219 56.8998 25.4383Z" fill="white"/>
<path d="M35.2883 28.2013C34.5429 27.5693 33.4247 27.6666 32.7927 28.412C32.1606 29.1575 32.2579 30.2838 33.0033 30.9077L34.3646 32.0583C34.6968 32.3419 35.102 32.4796 35.5071 32.4796C36.0095 32.4796 36.5119 32.269 36.8603 31.8476C37.4923 31.1022 37.3951 29.9759 36.6496 29.352L35.2883 28.2013Z" fill="white"/>
</g>
</svg>
