<svg width="43" height="89" viewBox="0 0 43 89" fill="none" xmlns="http://www.w3.org/2000/svg">
<g opacity="0.7">
<path d="M23.0525 0H19.6575C8.82398 0 0.00810283 8.81588 0.00810283 19.6494V39.3554C0.00810283 39.3959 0 39.4365 0 39.477C0 39.5175 0.00810283 39.558 0.00810283 39.5985V58.0081C0.00810283 61.6463 2.96563 64.6038 6.6038 64.6038H14.4635V81.9034C14.4635 85.7036 17.5588 88.7989 21.3591 88.7989C25.1593 88.7989 28.2546 85.7036 28.2546 81.9034V64.6038H36.1143C39.7525 64.6038 42.71 61.6463 42.71 58.0081V19.6494C42.7019 8.81588 33.886 0 23.0525 0ZM24.7055 81.8953C24.7055 83.7427 23.2065 85.2417 21.3591 85.2417C19.5116 85.2417 18.0126 83.7427 18.0126 81.8953V64.6038H24.7055V81.8953ZM39.161 58.0081C39.161 59.6854 37.7916 61.0548 36.1143 61.0548H6.6038C4.92652 61.0548 3.55714 59.6854 3.55714 58.0081V42.8802C4.46466 44.2252 5.71249 46.0646 8.27299 46.0646C10.8416 46.0646 12.0894 44.2171 12.9969 42.8721C13.8477 41.608 14.188 41.2434 14.7796 41.2434C15.3711 41.2434 15.7114 41.608 16.5622 42.8721C17.4697 44.2171 18.7175 46.0646 21.2861 46.0646C23.8547 46.0646 25.1026 44.2171 26.0101 42.8721C26.8609 41.608 27.2012 41.2434 27.7927 41.2434C28.3842 41.2434 28.7245 41.608 29.5753 42.8721C30.4828 44.2171 31.7307 46.0646 34.2993 46.0646C36.8679 46.0646 38.1157 44.2171 39.0232 42.8721C39.0718 42.7991 39.1123 42.7424 39.161 42.6776V58.0081ZM39.161 37.9942C37.6619 38.5695 36.7787 39.8659 36.09 40.8869C35.2392 42.1509 34.8989 42.5155 34.3074 42.5155C33.7078 42.5155 33.3755 42.1509 32.5247 40.8869C31.6172 39.5418 30.3694 37.6943 27.8008 37.6943C25.2322 37.6943 23.9844 39.5418 23.0768 40.8869C22.2261 42.1509 21.8857 42.5155 21.2942 42.5155C20.7027 42.5155 20.3624 42.1509 19.5116 40.8869C18.6041 39.5418 17.3563 37.6943 14.7877 37.6943C12.2191 37.6943 10.9712 39.5418 10.0637 40.8869C9.21291 42.1509 8.87259 42.5155 8.28109 42.5155C7.68958 42.5155 7.34926 42.1509 6.49847 40.8869C5.83404 39.8983 4.98324 38.6505 3.56524 38.0509V19.6494C3.56524 10.7687 10.7849 3.54904 19.6656 3.54904H23.0606C31.9413 3.54904 39.161 10.7687 39.161 19.6494V37.9942Z" fill="black"/>
<path d="M14.5442 11.4738C14.3984 10.5096 13.499 9.84517 12.5266 9.98292C11.5543 10.1288 10.8898 11.0282 11.0357 12.0005L11.295 13.7588C11.4246 14.642 12.1863 15.2741 13.0452 15.2741C13.1343 15.2741 13.2235 15.266 13.3045 15.2579C14.2768 15.112 14.9413 14.2126 14.7954 13.2403L14.5442 11.4738Z" fill="black"/>
<path d="M21.9622 19.6246C21.0142 19.3815 20.05 19.9487 19.7988 20.8967L19.3531 22.6226C19.11 23.5707 19.6772 24.5349 20.6253 24.7861C20.7711 24.8266 20.9251 24.8428 21.0709 24.8428C21.8569 24.8428 22.578 24.308 22.7887 23.514L23.2344 21.7881C23.4775 20.8319 22.9103 19.8677 21.9622 19.6246Z" fill="black"/>
<path d="M28.023 7.84365L26.2566 8.06243C25.2842 8.18397 24.5955 9.06718 24.717 10.0395C24.8305 10.9389 25.5921 11.5953 26.4753 11.5953C26.5483 11.5953 26.6212 11.5872 26.7022 11.5791L28.4686 11.3603C29.441 11.2387 30.1297 10.3555 30.0082 9.38319C29.8866 8.41085 29.0034 7.71401 28.023 7.84365Z" fill="black"/>
<path d="M32.8998 24.4383C31.9599 24.1547 30.9714 24.6895 30.6959 25.6294L30.1854 27.3391C29.9018 28.2791 30.4366 29.2676 31.3765 29.5431C31.5467 29.5917 31.7168 29.616 31.887 29.616C32.6486 29.616 33.3536 29.1218 33.5886 28.352L34.0991 26.6423C34.3664 25.7105 33.8317 24.7219 32.8998 24.4383Z" fill="black"/>
<path d="M11.2883 27.2013C10.5429 26.5693 9.42468 26.6666 8.79266 27.412C8.16064 28.1575 8.25787 29.2838 9.00333 29.9077L10.3646 31.0583C10.6968 31.3419 11.102 31.4796 11.5071 31.4796C12.0095 31.4796 12.5119 31.269 12.8603 30.8476C13.4923 30.1022 13.3951 28.9759 12.6496 28.352L11.2883 27.2013Z" fill="black"/>
</g>
</svg>
