<svg width="90" height="90" viewBox="0 0 90 90" fill="none" xmlns="http://www.w3.org/2000/svg">
<g clip-path="url(#clip0_4494_111)">
<g opacity="0.7">
<path d="M85.7085 41.9091C81.7662 32.9897 75.0518 24.104 66.7996 16.8844C58.6176 9.7262 49.2181 4.4818 40.327 2.13038C37.0212 1.2531 33.515 3.16868 32.3443 6.48831L30.806 10.873L4.2372 86.617C3.99992 87.2868 4.18242 88.0206 4.69709 88.4709C5.21175 88.9212 5.95915 89.0009 6.59998 88.6841L82.4785 50.5117C85.6484 48.9195 87.1011 45.0557 85.7085 41.9091ZM8.89689 83.6958L33.5702 13.3779C41.8241 15.0419 50.5892 19.6663 58.4203 26.5175C66.3157 33.4249 72.3482 41.7682 75.5474 50.1675L8.89689 83.6958ZM81.0423 47.4028L78.7228 48.5692C75.3145 39.7486 69.0016 31.03 60.7787 23.836C52.6317 16.7085 43.457 11.8557 34.7449 10.0185L35.6273 7.49734C36.1619 5.97179 37.7717 5.09451 39.2992 5.49925C47.7062 7.73043 56.6385 12.7177 64.452 19.5536C72.3533 26.4662 78.7692 34.9499 82.5245 43.4349C83.1541 44.8957 82.4945 46.6693 81.0423 47.4028Z" fill="black"/>
<path d="M44.0556 44.6477C47.5522 40.6742 47.3068 34.7325 43.5088 31.4114C39.7108 28.0904 33.7691 28.6219 30.2725 32.5954C26.7759 36.569 27.0214 42.5107 30.8194 45.8318C34.6232 49.158 40.559 48.6213 44.0556 44.6477ZM32.8495 34.8488C35.0437 32.3554 38.7642 32.0225 41.1475 34.1065C43.5308 36.1905 43.6845 39.9112 41.4904 42.4046C39.2962 44.8981 35.5756 45.2309 33.1923 43.1469C30.809 41.0629 30.6553 37.3423 32.8495 34.8488Z" fill="black"/>
<path d="M52.6905 54.1062C56.4885 57.4272 62.4301 56.8957 65.9267 52.9222C69.4233 48.9487 69.1778 43.0072 65.3798 39.6862C61.5818 36.3652 55.6402 36.8967 52.1436 40.8702C48.647 44.8437 48.8925 50.7853 52.6905 54.1062ZM63.0127 42.3761C65.396 44.4601 65.5497 48.1806 63.3556 50.674C61.1614 53.1674 57.4408 53.5003 55.0576 51.4163C52.6743 49.3323 52.5206 45.6118 54.7147 43.1184C56.9089 40.625 60.6295 40.2922 63.0127 42.3761Z" fill="black"/>
<path d="M35.7065 38.5153L35.569 37.9277C35.3493 36.9964 34.4153 36.4516 33.4753 36.7168C32.5353 36.9819 31.9468 37.9457 32.1665 38.8769L32.3041 39.4646C32.3867 39.8195 32.5744 40.114 32.8269 40.3348C33.2381 40.6942 33.8158 40.8407 34.4036 40.6806C35.3323 40.4165 35.9262 39.4465 35.7065 38.5153Z" fill="black"/>
<path d="M57.6541 43.9374L57.7916 44.525C57.8742 44.8798 58.0619 45.1744 58.3144 45.3952C58.7256 45.7546 59.3034 45.9011 59.8911 45.741C60.8311 45.4759 61.4196 44.5121 61.2058 43.586L61.0682 42.9984C60.8485 42.0671 59.9146 41.5224 58.98 41.7813C58.0282 42.0362 57.4402 43.0113 57.6541 43.9374Z" fill="black"/>
<path d="M38.0362 39.4232C37.5868 40.1696 37.7321 41.0889 38.3358 41.6168C38.4178 41.6886 38.5053 41.7542 38.5976 41.8024C39.4191 42.2713 40.4855 41.9669 40.9986 41.1243L41.3212 40.5926C41.8285 39.7449 41.5759 38.6884 40.7598 38.2134C39.9383 37.7445 38.8719 38.0489 38.3588 38.8915L38.0362 39.4232Z" fill="black"/>
<path d="M57.7979 48.158C58.3051 47.3103 58.0525 46.2538 57.2363 45.7788C56.4148 45.3099 55.3485 45.6143 54.8353 46.4569L54.5127 46.9886C54.0634 47.735 54.2087 48.6543 54.8123 49.1822C54.8944 49.254 54.9818 49.3196 55.0742 49.3678C55.8957 49.8367 56.9621 49.5323 57.4752 48.6897L57.7979 48.158Z" fill="black"/>
<path d="M39.0863 36.9883L39.4035 36.4627C39.9108 35.6149 39.6635 34.5522 38.842 34.0832C38.0204 33.6143 36.9482 33.9136 36.4409 34.7614L36.1236 35.287C35.6743 36.0335 35.8196 36.9529 36.4233 37.4809C36.5053 37.5526 36.5869 37.6131 36.6851 37.6665C37.5067 38.1354 38.5843 37.8299 39.0863 36.9883Z" fill="black"/>
<path d="M38.2218 51.6622C34.371 48.295 28.3617 48.8325 24.8164 52.8614C21.2712 56.8902 21.5195 62.8996 25.3703 66.2668C29.2211 69.6341 35.2304 69.0965 38.7757 65.0677C42.3209 61.0388 42.0726 55.0295 38.2218 51.6622ZM27.7374 63.5768C25.3071 61.4518 25.1443 57.6471 27.3817 55.1045C29.6191 52.5619 33.424 52.2159 35.8601 54.3461C38.2904 56.4712 38.4532 60.2758 36.2104 62.8246C33.973 65.3672 30.1676 65.7019 27.7374 63.5768Z" fill="black"/>
<path d="M33.2413 59.4387C32.3012 59.7039 31.7128 60.6677 31.9266 61.5938L32.0642 62.1815C32.1468 62.5364 32.3345 62.8309 32.587 63.0517C32.9981 63.4112 33.5759 63.5576 34.1637 63.3975C35.1037 63.1324 35.6921 62.1686 35.4783 61.2425L35.3407 60.6548C35.1211 59.7235 34.1871 59.1787 33.2413 59.4387Z" fill="black"/>
<path d="M31.0478 58.6623L30.9103 58.0746C30.696 57.1372 29.7567 56.5985 28.8221 56.8575C27.8821 57.1227 27.2937 58.0866 27.5075 59.0127L27.645 59.6004C27.7277 59.9553 27.9153 60.2498 28.1679 60.4706C28.579 60.8301 29.1568 60.9766 29.7445 60.8165C30.6737 60.5637 31.2617 59.5885 31.0478 58.6623Z" fill="black"/>
<path d="M34.7784 56.8232C35.2857 55.9756 35.0384 54.9129 34.2169 54.444C33.3954 53.9751 32.3232 54.2744 31.8159 55.1221L31.4933 55.6538C31.044 56.4003 31.1893 57.3195 31.7929 57.8475C31.875 57.9192 31.9566 57.9797 32.0548 58.0331C32.8763 58.502 33.9485 58.2026 34.4558 57.355L34.7784 56.8232Z" fill="black"/>
<path d="M60.3332 48.0093C59.8839 48.7557 60.0292 49.675 60.6328 50.2029C60.7148 50.2747 60.7964 50.3352 60.8946 50.3885C61.7162 50.8574 62.7884 50.5581 63.2956 49.7104L63.6182 49.1787C64.1255 48.331 63.8783 47.2683 63.0568 46.7994C62.2353 46.3305 61.1631 46.6299 60.6558 47.4776L60.3332 48.0093Z" fill="black"/>
<path d="M37.704 24.9543C38.3783 24.6002 38.7497 23.8835 38.6867 23.1773L39.7645 22.612C40.6322 22.1559 41.0063 21.0944 40.5929 20.2445C40.1794 19.3946 39.1383 19.0698 38.2705 19.526L37.1873 20.0974C36.6767 19.6291 35.9036 19.5062 35.2293 19.8603C34.3615 20.3164 33.9874 21.378 34.4009 22.2278L34.8883 23.2292L35.3758 24.2306C35.4746 24.4364 35.6059 24.6054 35.7699 24.7489C36.2854 25.1999 37.0409 25.3074 37.704 24.9543Z" fill="black"/>
<path d="M47.7163 47.2758C47.7163 47.2758 47.7104 47.2707 47.7163 47.2758C47.0068 46.6553 45.9032 46.7541 45.2495 47.4853L44.4074 48.4425C43.7471 48.1907 42.9575 48.3687 42.4447 48.9516C41.7915 49.6941 41.8312 50.7928 42.5407 51.4133L43.3909 52.1569L44.241 52.9005C44.241 52.9005 44.241 52.9005 44.2469 52.9056C44.9564 53.5261 46.06 53.4273 46.7078 52.691C47.2206 52.1081 47.3007 51.3095 46.9697 50.6834L47.8064 49.7324C48.46 49.0012 48.4257 47.8963 47.7163 47.2758Z" fill="black"/>
<path d="M54.6117 28.9068L54.6219 30.111C53.9548 30.397 53.4844 31.0614 53.4926 31.8075C53.4964 32.3107 53.7125 32.7496 54.0588 33.0524C54.3757 33.3296 54.7949 33.4788 55.258 33.46L56.3979 33.3919L57.5379 33.3238C58.5029 33.2658 59.278 32.444 59.2663 31.4776C59.2636 30.7253 58.7803 30.118 58.1098 29.9121L58.0997 28.7079C58.0881 27.7415 57.3052 27.0025 56.3402 27.0606C55.3806 27.1125 54.6055 27.9343 54.6117 28.9068Z" fill="black"/>
<path d="M21.3794 69.3985C20.0293 68.2179 17.927 68.4115 16.6842 69.8239C15.4414 71.2363 15.534 73.3384 16.8782 74.5139C18.2283 75.6945 20.3365 75.506 21.5739 74.0997C22.8167 72.6873 22.7295 70.5791 21.3794 69.3985ZM18.656 72.4935C18.3684 72.242 18.3556 71.7962 18.615 71.5014C18.8797 71.2005 19.3253 71.1663 19.607 71.4127C19.8947 71.6642 19.9074 72.1101 19.6481 72.4048C19.3833 72.7057 18.9436 72.745 18.656 72.4935Z" fill="black"/>
<path d="M49.034 56.0429C47.6134 54.8007 45.3925 54.9993 44.0848 56.4853C42.7771 57.9714 42.869 60.1923 44.2896 61.4344C45.7101 62.6766 47.931 62.478 49.2387 60.992C50.5464 59.5059 50.4545 57.285 49.034 56.0429ZM46.062 59.4203C45.7039 59.1072 45.6806 58.5435 46.0102 58.1689C46.3398 57.7943 46.9035 57.7439 47.2616 58.057C47.6197 58.3701 47.643 58.9338 47.3134 59.3084C46.9837 59.683 46.42 59.7334 46.062 59.4203Z" fill="black"/>
<path d="M45.2234 30.5001C46.6322 31.732 48.8306 31.5355 50.1274 30.0617C51.4243 28.5879 51.3334 26.3895 49.9246 25.1576C48.5158 23.9257 46.3174 24.1223 45.0205 25.5961C43.7236 27.0698 43.8146 29.2682 45.2234 30.5001ZM48.1522 27.1718C48.4985 27.4746 48.5209 28.0158 48.2021 28.3781C47.8833 28.7404 47.3421 28.7888 46.9958 28.4859C46.6494 28.1831 46.6271 27.642 46.9459 27.2796C47.2647 26.9173 47.8058 26.869 48.1522 27.1718Z" fill="black"/>
</g>
</g>
<defs>
<clipPath id="clip0_4494_111">
<rect width="90" height="90" fill="white"/>
</clipPath>
</defs>
</svg>
